<?xml version="1.0" encoding="UTF-8"?>
<svg id="Layer_1" data-name="Layer 1" xmlns="http://www.w3.org/2000/svg" viewBox="0 0 657.16 235.01">
  <g>
    <path d="M130.58,29.54c-.8-1-1.67-1.87-2.5-2.84-1.94-2.25-3.68-4.46-4.71-7.28-.16-.45-.31-.93-.43-1.36-.09-.33-.18-.67-.2-.98-.25.27-.51.54-.76.82-.56.63-1.23,1.25-1.82,1.84-.56.56-1.15,1.01-1.81,1.52-1.66,1.26-3.39,2.43-5.17,3.53-.1.06-.17.09-.17.09l-2.06,1.3c-.32.24-.42.32-.6.45-.85.61-1.72,1.37-2.45,2-1.7,1.49-2.83,2.77-4.08,4.6-.57.83-1.23,2.03-1.65,3.01-2.14,5.06-2.19,10.78,1.49,15.13,3.42,4.05,9,5.71,14.2,5.51.37-.01.58-.02,1.15-.07,0,0,1.77-.18,2.64-.36,1.28-.26,2.7-.76,3.88-1.31.82-.38,2.63-1.31,3.3-1.79.7-.5,1.77-1.33,2.34-1.83.26-.23.87-.84,1.03-1.01.61-.66,1.38-1.83,1.77-2.59.32-.64.54-1.33.72-1.98.18-.65.22-.91.31-1.37.47-2.29.46-4.15,0-6.42-.65-3.16-2.46-6.16-4.43-8.61Z" style="fill: #77bbd4;"></path>
    <path d="M121.49,22.66c1.23,2.39,2.83,4.34,4.3,6.03.34.4.69.78,1.04,1.16.49.54.96,1.06,1.39,1.59,2.04,2.53,3.36,5.06,3.82,7.32.39,1.87.39,3.33,0,5.2l-.06.31c-.05.28-.09.45-.2.83-.13.47-.3,1.02-.51,1.44-.29.58-.91,1.5-1.28,1.9-.13.15-.65.65-.79.78-.49.43-1.48,1.2-2.11,1.65-.4.28-1.93,1.09-2.82,1.51-1.03.48-2.22.89-3.2,1.08-.53.11-1.72.25-2.32.31-.39.04-.58.04-.8.05h-.18c-.24.02-.49.02-.74.02-4.61,0-8.63-1.62-11.02-4.45-3.66-4.33-1.93-9.83-1.02-11.99.33-.77.88-1.79,1.35-2.47,1.13-1.64,2.1-2.73,3.58-4.03.73-.64,1.5-1.31,2.22-1.83.15-.11.25-.19.45-.33l.11-.08,1.85-1.17c.08-.04.16-.09.26-.15,2.01-1.26,3.78-2.46,5.4-3.69.45-.34.87-.67,1.29-1.02M122.75,17.08c-.25.27-.51.54-.76.82-.56.63-1.23,1.25-1.82,1.84-.56.56-1.15,1.01-1.81,1.52-1.66,1.26-3.39,2.43-5.17,3.53-.1.06-.17.09-.17.09l-2.06,1.3c-.32.24-.42.32-.6.45-.85.61-1.72,1.37-2.45,2-1.7,1.49-2.83,2.77-4.08,4.6-.57.83-1.23,2.03-1.65,3.01-2.14,5.06-2.19,10.78,1.49,15.13,3.24,3.83,8.4,5.52,13.34,5.52.29,0,.57,0,.86-.02.37-.01.58-.02,1.15-.07,0,0,1.77-.18,2.64-.36,1.28-.26,2.7-.76,3.88-1.31.82-.38,2.63-1.31,3.3-1.79.7-.5,1.77-1.33,2.34-1.83.26-.23.87-.84,1.03-1.01.61-.66,1.38-1.83,1.77-2.59.32-.64.54-1.33.72-1.98.18-.65.22-.91.31-1.37.47-2.29.46-4.15,0-6.42-.65-3.16-2.46-6.16-4.43-8.61-.8-1-1.67-1.87-2.5-2.84-1.94-2.25-3.68-4.46-4.71-7.28-.16-.45-.31-.93-.43-1.36-.09-.33-.18-.68-.2-.98h0Z" style="fill: #fff;"></path>
  </g>
  <g>
    <path d="M556.75,29.54c-.8-1-1.67-1.87-2.5-2.84-1.94-2.25-3.68-4.46-4.71-7.28-.16-.45-.31-.93-.43-1.36-.09-.33-.18-.67-.2-.98-.25.27-.51.54-.76.82-.56.63-1.23,1.25-1.82,1.84-.56.56-1.15,1.01-1.81,1.52-1.66,1.26-3.39,2.43-5.17,3.53-.1.06-.17.09-.17.09l-2.06,1.3c-.32.24-.42.32-.6.45-.85.61-1.72,1.37-2.45,2-1.7,1.49-2.83,2.77-4.08,4.6-.57.83-1.23,2.03-1.65,3.01-2.14,5.06-2.19,10.78,1.49,15.13,3.42,4.05,9,5.71,14.2,5.51.37-.01.58-.02,1.15-.07,0,0,1.77-.18,2.64-.36,1.28-.26,2.7-.76,3.88-1.31.82-.38,2.63-1.31,3.3-1.79.7-.5,1.77-1.33,2.34-1.83.26-.23.87-.84,1.03-1.01.61-.66,1.38-1.83,1.77-2.59.32-.64.54-1.33.72-1.98.18-.65.22-.91.31-1.37.47-2.29.46-4.15,0-6.42-.65-3.16-2.46-6.16-4.43-8.61Z" style="fill: #77bbd4;"></path>
    <path d="M547.65,22.66c1.23,2.39,2.83,4.34,4.3,6.04.34.4.69.78,1.04,1.16.49.54.96,1.06,1.39,1.59,2.04,2.53,3.36,5.06,3.82,7.32.38,1.87.39,3.33,0,5.2l-.06.32c-.05.28-.09.45-.19.83-.13.48-.3,1.02-.51,1.44-.29.58-.91,1.5-1.29,1.9-.13.14-.64.65-.79.78-.49.43-1.48,1.2-2.11,1.65-.4.28-1.93,1.09-2.82,1.51-1.03.48-2.22.89-3.2,1.08-.53.11-1.72.25-2.32.31-.39.04-.58.04-.8.05h-.18c-.25.02-.49.02-.74.02-4.62,0-8.63-1.62-11.02-4.45-3.66-4.33-1.93-9.83-1.02-11.99.33-.77.88-1.79,1.35-2.47,1.13-1.64,2.1-2.74,3.58-4.03.73-.64,1.5-1.31,2.22-1.83.16-.11.26-.19.45-.34l.1-.08,1.85-1.17c.07-.04.16-.09.25-.15,2.01-1.25,3.78-2.46,5.4-3.69.45-.34.87-.67,1.29-1.02M548.91,17.08c-.25.27-.51.54-.76.82-.56.63-1.23,1.25-1.82,1.84-.56.56-1.15,1.01-1.81,1.52-1.66,1.26-3.39,2.43-5.17,3.53-.1.06-.17.09-.17.09l-2.06,1.3c-.32.24-.42.32-.6.45-.85.61-1.72,1.37-2.45,2-1.7,1.49-2.83,2.77-4.08,4.6-.57.83-1.23,2.03-1.65,3.01-2.14,5.06-2.19,10.78,1.49,15.13,3.24,3.83,8.4,5.52,13.34,5.52.29,0,.57,0,.86-.02.37-.01.58-.02,1.15-.07,0,0,1.77-.18,2.64-.36,1.28-.26,2.7-.76,3.88-1.31.82-.38,2.63-1.31,3.3-1.79.7-.5,1.77-1.33,2.34-1.83.26-.23.87-.84,1.03-1.01.61-.66,1.38-1.83,1.77-2.59.32-.64.54-1.33.72-1.98.18-.65.22-.91.31-1.37.47-2.29.46-4.15,0-6.42-.65-3.16-2.46-6.16-4.43-8.61-.8-1-1.67-1.87-2.5-2.84-1.94-2.25-3.68-4.46-4.71-7.28-.16-.45-.31-.93-.43-1.36-.09-.33-.18-.68-.2-.98h0Z" style="fill: #fff;"></path>
  </g>
  <g>
    <g>
      <path d="M120.35,161.04c-.16,3.02-1.07,5.4-2.74,7.14-1.67,1.75-3.93,2.38-6.78,1.9-2.38-.32-4.13-.55-5.24-.71-1.11-.16-2.54-.51-4.28-1.07-1.75-.55-2.98-1.31-3.69-2.26-.71-.95-.99-2.06-.83-3.33,1.58-11.11,3.13-28.72,4.64-52.85,1.51-24.12,2.42-37.37,2.74-39.75.79-3.65,2.89-6.03,6.31-7.14,3.41-1.11,6.82-1.15,10.24-.12,3.41,1.03,5.51,2.42,6.31,4.17.16.32.04,6.35-.36,18.09-.4,11.75-1.15,25.39-2.26,40.94-1.11,15.56-2.46,27.22-4.05,34.99Z" style="fill: #fff;"></path>
      <path d="M180.51,90.37c.92-1.22,2.75-3.55,5.5-6.99,2.75-3.44,5.12-6.65,7.11-9.63,1.98-2.98,4.43-6.91,7.34-11.81,2.75-4.58,7.11-5.04,13.07-1.38.61.46,1.53,1,2.75,1.6,1.22.61,2.18,1.11,2.87,1.49.69.38,1.38.88,2.06,1.49.69.61.99,1.26.92,1.95-.08.69-.42,1.41-1.03,2.18-6.73,8.71-16.81,22.31-30.26,40.8,3.97,8.71,6.91,15.09,8.82,19.14,1.91,4.05,5.04,9.9,9.4,17.54,4.36,7.64,8.29,13.53,11.81,17.65,2.14,2.45.15,4.43-5.96,5.96-7.03,1.83-12.61,1.99-16.73.46-1.07-.46-1.68-.99-1.83-1.6-3.82-8.56-10.31-21.62-19.48-39.2-2.45,3.82-4.74,7.49-6.88,11-.92,1.37-2.9,4.66-5.96,9.86-3.06,5.2-5.88,9.97-8.48,14.33-2.6,4.36-3.98,6.61-4.13,6.76-1.53,1.53-4.21,2.56-8.02,3.09-3.82.54-7.45.31-10.89-.69-3.44-.99-5.23-2.79-5.39-5.39-.15-1.68.96-4.32,3.32-7.91,2.37-3.59,5.88-8.37,10.54-14.33,4.66-5.96,8.21-10.77,10.66-14.44.76-1.38,2.94-4.74,6.53-10.09,3.59-5.35,6.38-9.47,8.37-12.38-5.35-10.09-10.17-18.34-14.44-24.76-1.38-1.07-2.83-2.29-4.36-3.67-1.53-1.37-3.06-2.75-4.58-4.13-1.83-1.68-1.41-4.05,1.26-7.11,2.67-3.06,5.81-5.23,9.4-6.53,3.59-1.3,6.45-1.18,8.6.34.76.77,3.51,4.58,8.25,11.46,4.73,6.88,7.64,11.23,8.71,13.07.61.92.99,1.53,1.15,1.83Z" style="fill: #fff;"></path>
      <path d="M292.7,126.29c3.81-3.01,6.5-2.06,8.09,2.86,1.9,5.71,1.11,11.82-2.38,18.33-1.11,1.9-2.38,3.57-3.81,5-.95.95-2.42,1.99-4.4,3.09-1.99,1.11-4.33,2.26-7.02,3.45-2.7,1.19-5.08,2.22-7.14,3.09-2.06.87-4.33,1.79-6.78,2.74-2.46.95-3.77,1.43-3.93,1.43-11.59,4.6-22.14,3.18-31.66-4.28-2.22-1.74-4.49-4.2-6.78-7.38-2.3-3.17-4.33-7.77-6.07-13.81-1.75-6.03-2.3-12.42-1.67-19.16.63-6.74,3.77-14.72,9.4-23.92,5.63-9.2,13.69-18.33,24.16-27.37,6.98-5.55,13.45-7.97,19.4-7.26,5.95.71,11.07,3.14,15.35,7.26,4.28,4.13,7.62,8.45,10,12.97,2.38,4.52,3.33,7.74,2.86,9.64-1.75,7.46-6.51,14.72-14.28,21.78-7.78,7.06-16.51,12.97-26.18,17.73-6.19,2.86-11.59,4.76-16.19,5.71v.24c0,.95.08,1.83.24,2.62.16.8.55,1.87,1.19,3.21.63,1.35,1.51,2.3,2.62,2.86,1.11.56,2.78.71,5,.48,2.22-.24,4.84-1.07,7.86-2.5,14.91-7.3,25.63-13.57,32.14-18.81ZM275.08,82.49c-1.43-.16-3.81.91-7.14,3.21-3.33,2.3-6.78,5.16-10.36,8.57-3.57,3.42-6.75,7.54-9.52,12.38-2.78,4.84-4.25,9.48-4.4,13.93.32,1.27,3.17.36,8.57-2.74,5.39-3.1,10.67-7.97,15.83-14.64,5.16-6.67,7.5-13.57,7.02-20.71Z" style="fill: #fff;"></path>
      <path d="M342.21,29.16c-.48,5.71-.87,10.47-1.19,14.28-.32,3.81-.71,8.61-1.19,14.4-.48,5.8-.95,11.66-1.43,17.61s-.95,12.46-1.43,19.52c-.48,7.06-.87,13.81-1.19,20.23-.32,6.43-.6,13.06-.83,19.88-.24,6.83-.36,12.86-.36,18.09s.08,10.24.24,15c0,2.38-1.63,4.21-4.88,5.48-3.25,1.27-6.78,1.83-10.59,1.67-1.27-.16-2.5-.2-3.69-.12-1.19.08-2.34.08-3.45,0-1.11-.08-2.1-.24-2.97-.48-.87-.24-1.55-.67-2.02-1.31-.48-.63-.71-1.43-.71-2.38.48-10.31,1.79-28.21,3.93-53.68,2.14-25.47,4.17-48.68,6.07-69.63,1.9-20.95,2.86-32.21,2.86-33.8-.16-5.08,1.31-8.77,4.4-11.07,3.09-2.3,6.31-3.21,9.64-2.74s5.55,1.51,6.67,3.1c5.39,8.41,7.46,16.03,6.19,22.85-.8,3.33-2.14,4.37-4.05,3.09Z" style="fill: #fff;"></path>
      <path d="M453.38,40.11c4.13,10.16,5.36,21.11,3.69,32.85-1.67,11.75-5,22.97-10,33.68-5,10.71-11.23,20.51-18.69,29.4-4.13,5.08-10.95,11.75-20.47,20-1.75,1.43-5.4,3.97-10.95,7.62-5.56,3.65-10.79,7.02-15.71,10.12-4.92,3.09-7.54,4.8-7.86,5.12-3.49,3.97-6.03,6.11-7.62,6.43-4.44,1.43-7.9.36-10.35-3.21-2.46-3.57-3.45-8.37-2.98-14.4.32-3.33,1.67-17.53,4.05-42.61,2.38-25.07,3.81-40.86,4.28-47.37,0-.95.12-2.7.36-5.24.24-2.54.43-4.48.59-5.83.16-1.35.2-3.01.12-5-.08-1.98-.36-3.77-.83-5.36-.16-.63-1.87-.83-5.12-.6-3.25.24-5.2.2-5.83-.12-1.9-2.22-2.62-5.43-2.14-9.64.48-4.2,1.67-7.18,3.57-8.93,8.09-5.71,12.46-9.12,13.09-10.24.32-.63.75-3.1,1.31-7.38.55-4.28.91-6.74,1.07-7.38.63-2.7,3.29-4.56,7.97-5.59,4.68-1.03,7.89-.75,9.64.83.63.32,1.86,1.79,3.69,4.4,1.82,2.62,2.89,4.01,3.21,4.17.32.16,3.57-.08,9.76-.71,13.96-1.27,25.07-.32,33.33,2.86,7.93,3.18,14.2,10.56,18.81,22.14ZM431.71,81.3c1.27-6.03,1.67-11.94,1.19-17.73-.48-5.79-2.54-10.91-6.19-15.35-3.65-4.44-8.41-6.98-14.28-7.62-3.18-.48-6.67-.44-10.47.12-3.81.56-6.9,1.15-9.28,1.79l-3.33,1.19c-2.22,2.22-5.4,27.46-9.52,75.7-.16,2.06-.4,5.36-.71,9.88-.32,4.52-.6,8.61-.83,12.26-.24,3.65-.36,5.64-.36,5.95,10.47-4.44,18.81-9.6,24.99-15.47,7.46-6.98,13.29-14.08,17.5-21.3,4.2-7.22,7.97-17.02,11.31-29.4Z" style="fill: #fff;"></path>
      <path d="M487.42,79.63c4.76-7.14,10.24-13.09,16.42-17.85,6.19-4.76,12.38-7.93,18.57-9.52,2.38-.48,4.13,1.27,5.24,5.24,1.43,6.19,1.03,12.38-1.19,18.57-.8,2.06-1.67,3.41-2.62,4.05-8.41,1.27-16.9,4.92-25.47,10.95-8.57,6.03-12.94,12.54-13.09,19.52-.16,1.59-1.03,10.51-2.62,26.78-1.59,16.27-2.3,25.99-2.14,29.16.16,1.43-.56,2.78-2.14,4.05-1.59,1.27-3.57,2.18-5.95,2.74-2.38.56-4.8.83-7.26.83s-4.64-.71-6.55-2.14c-1.9-1.43-3.01-3.41-3.33-5.95,0-.95.12-2.22.36-3.81.24-1.58.59-3.41,1.07-5.48.48-2.06.79-3.25.95-3.57,1.43-7.46,4.68-37.45,9.76-89.98.32-2.22,1.82-3.53,4.52-3.93,2.7-.39,5.2-.32,7.5.24,2.3.56,3.85,1.07,4.64,1.55,1.74.8,2.82,2.22,3.21,4.28.39,2.06.48,4.64.24,7.74-.24,3.09-.28,5.28-.12,6.55Z" style="fill: #fff;"></path>
      <path d="M546.45,161.04c-.16,3.02-1.07,5.4-2.74,7.14-1.67,1.75-3.93,2.38-6.78,1.9-2.38-.32-4.13-.55-5.24-.71-1.11-.16-2.54-.51-4.28-1.07-1.75-.55-2.98-1.31-3.69-2.26s-.99-2.06-.83-3.33c1.58-11.11,3.13-28.72,4.64-52.85,1.51-24.12,2.42-37.37,2.74-39.75.79-3.65,2.89-6.03,6.31-7.14,3.41-1.11,6.82-1.15,10.24-.12,3.41,1.03,5.51,2.42,6.31,4.17.16.32.04,6.35-.36,18.09-.4,11.75-1.15,25.39-2.26,40.94-1.11,15.56-2.46,27.22-4.05,34.99Z" style="fill: #fff;"></path>
      <path d="M109.32,21.48c-1.99-6.8-7.13-11.47-15.47-13.97-5.4-1.58-12.62-2.22-21.66-1.9-5.71.16-13.29,1.07-22.73,2.74-9.44,1.67-16.7,3.3-21.78,4.88l-1.19.95c-.8.64-1.79,1.71-2.98,3.21-1.19,1.51-2.42,3.3-3.69,5.36-1.27,2.06-2.5,4.84-3.69,8.33-1.19,3.49-1.95,7.3-2.26,11.43-.16,1.27-.68,6.55-1.55,15.83-.87,9.28-1.75,18.61-2.62,27.97-.86,9.26-1.92,19.33-3.17,30.21h0c-.01.09-.02.17-.03.26,0,.04,0,.08-.01.12-.98,8.49-1.91,15.58-2.79,21.29-.26,1.71-.52,3.31-.78,4.77-.19,1.12-.4,2.59-.65,4.38-.03.2-.06.41-.08.63-.14,1.08-.3,2.26-.46,3.56-.11.85-.21,1.74-.31,2.66-.36,3.16-.69,6.68-1,10.56-.15,1.89-.25,3.68-.32,5.42-.12,2.87-.14,5.56-.04,8.03,0,.02,0,.03,0,.04.02.36.04.7.06,1.02.23,3.3.84,5.26,1.84,5.83,3.49,1.74,6.94,2.54,10.36,2.38,3.41-.16,6.31-.87,8.69-2.14,3.97-2.22,6.43-6.66,7.38-13.33,1.01-7.06,1.65-13.91,1.96-20.56.09-1.73.15-3.45.18-5.14.02-1.35.04-2.64.06-3.87.13-7.38.31-12.61.54-15.71.04-.52.08-.97.12-1.37,0,0,0,0,0,0,.04-.23.09-.46.16-.69.03-.11.08-.22.12-.32.04-.11.09-.23.14-.34.07-.14.14-.29.22-.43.04-.07.08-.14.12-.21.1-.17.21-.34.32-.51.88-1.25,2.25-2.52,4.15-3.8,3.17-2.14,7.34-4.72,12.5-7.74,5.16-3.01,9.32-5.87,12.5-8.57,1.9-1.74,6.11-5.79,12.62-12.14,6.51-6.35,10.55-10.39,12.14-12.14,6.3-6.98,11.37-13.85,15.25-20.61.3-.65.65-1.9-.31-3.05-.06-.06-.11-.12-.16-.17-.06-.06-.11-.12-.18-.18h0c-.06-.06-.12-.12-.17-.18-.08-.09-.16-.19-.24-.28-2.55-3.02-3.9-6.78-3.91-10.86,0-2.39.45-4.83,1.33-7.26.14-.39.29-.77.45-1.14.5-1.19,1.3-2.65,2.03-3.72.36-.52.71-1,1.06-1.46,1.08-1.4,2.22-2.6,3.69-3.89.82-.71,1.77-1.54,2.74-2.24l.55-.41c.08-.06.17-.12.26-.18l.08-.05h0s.17-.1.17-.1c.23-.17.58-.55.44-1.17ZM83.14,42.49c-.48,1.43-1.27,3.33-2.38,5.71-2.54,5.24-6.67,11.98-12.38,20.23-3.02,4.44-6.83,8.93-11.43,13.45-4.6,4.52-8.41,7.97-11.43,10.35-3.02,2.38-4.92,3.73-5.71,4.05-3.02,2.22-5.28,3.81-6.79,4.76-1.51.95-2.5,1.35-2.97,1.19-.16-.16-.24-.48-.24-.95.16-.32.59-2.54,1.31-6.66.71-4.12,1.51-8.37,2.38-12.74.87-4.36,1.39-6.78,1.55-7.26,1.74-10.79,3.96-23.48,6.66-38.09,13.81-3.49,24.83-4.52,33.09-3.1,1.11.16,2.34.48,3.69.95,1.35.48,2.66,1.47,3.93,2.98,1.27,1.51,1.51,3.21.71,5.12Z" style="fill: #fff;"></path>
    </g>
    <path d="M640.73,55.03c11.11,3.33,16.58,10.47,16.43,21.42,0,4.13-.48,8.02-1.43,11.66-3.33,12.22-10.87,24.84-22.61,37.85-1.59,1.75-5.64,5.8-12.14,12.14-6.51,6.35-10.71,10.4-12.62,12.14-3.18,2.7-7.34,5.56-12.5,8.57-5.16,3.02-9.32,5.59-12.5,7.74-3.18,2.14-4.92,4.25-5.24,6.31-.32,3.18-.56,10.16-.71,20.95-.16,8.25-.87,16.82-2.14,25.71-.95,6.67-3.41,11.11-7.38,13.33-2.38,1.27-5.28,1.98-8.69,2.14-3.41.16-6.87-.64-10.36-2.38-1.11-.64-1.74-2.94-1.9-6.9-.16-3.97-.04-8.45.36-13.45.4-5,.83-9.4,1.31-13.21.48-3.81.87-6.67,1.19-8.57,1.11-6.35,2.3-15.03,3.57-26.07,1.27-11.03,2.34-21.22,3.21-30.59.87-9.36,1.74-18.69,2.62-27.97.87-9.28,1.39-14.56,1.55-15.83.32-4.13,1.07-7.93,2.26-11.43,1.19-3.49,2.42-6.27,3.69-8.33,1.27-2.06,2.5-3.85,3.69-5.36,1.19-1.51,2.18-2.58,2.98-3.21l1.19-.95c5.08-1.58,12.34-3.21,21.78-4.88,9.44-1.67,17.02-2.58,22.73-2.74,9.05-.32,16.27.32,21.66,1.9ZM630.02,90.02c.79-1.9.55-3.61-.71-5.12-1.27-1.51-2.58-2.5-3.93-2.98-1.35-.48-2.58-.79-3.69-.95-8.25-1.43-19.28-.39-33.09,3.1-2.7,14.6-4.92,27.3-6.66,38.09-.16.48-.68,2.9-1.55,7.26-.87,4.37-1.67,8.61-2.38,12.74-.71,4.13-1.15,6.35-1.31,6.66,0,.48.08.8.24.95.48.16,1.47-.24,2.97-1.19,1.51-.95,3.77-2.54,6.79-4.76.79-.32,2.7-1.67,5.71-4.05,3.01-2.38,6.82-5.83,11.43-10.35,4.6-4.52,8.41-9.01,11.43-13.45,5.71-8.25,9.84-15,12.38-20.23,1.11-2.38,1.9-4.28,2.38-5.71Z" style="fill: #fff;"></path>
  </g>
</svg>